<svg id="Layer" enable-background="new 0 0 512 512" height="512" viewBox="0 0 512 512" width="512" xmlns="http://www.w3.org/2000/svg"><path d="m352 24c61.86 0 112 50.14 112 112 0 60.05-47.25 109.05-106.6 111.86h-.01-.01c-1.78.1-3.57.14-5.38.14-61.86 0-112-50.14-112-112 0-1.81.04-3.6.14-5.38v-.01-.01c2.81-59.35 51.81-106.6 111.86-106.6z" fill="#f0eaea"/><path d="m357.38 247.86-205.58 152.55c-8.17 6.06-17.77 9.03-27.33 9.03-11.82 0-23.57-4.54-32.47-13.44-16.09-16.09-17.96-41.53-4.41-59.8l152.55-205.58c-.1 1.78-.14 3.57-.14 5.38 0 61.86 50.14 112 112 112 1.81 0 3.6-.04 5.38-.14z" fill="#dccfcf"/><path d="m29.115 475.939c9.074 21.907 30.26 36.061 53.975 36.061h340.91c13.255 0 24-10.745 24-24s-10.745-24-24-24h-340.91c-6.06 0-8.633-4.028-9.628-6.43-.995-2.4-2.023-7.067 2.259-11.35l19.265-19.265c9.116 4.242 19.126 6.485 29.484 6.485 15.101 0 29.496-4.756 41.631-13.757l200.023-148.426c68.932-7.078 121.876-65.082 121.876-135.257 0-74.99-61.009-136-136-136-70.176 0-128.18 52.944-135.257 121.875l-148.43 200.028c-9.98 13.457-14.799 30.069-13.568 46.777.625 8.483 2.796 16.71 6.325 24.308l-19.29 19.291c-16.767 16.767-21.738 41.754-12.665 63.66zm322.885-427.939c48.523 0 88 39.477 88 88 0 47.059-36.781 85.664-83.735 87.888-.024.001-.047.004-.072.005-.052.002-.103.001-.155.004-1.227.07-2.548.103-4.038.103-48.523 0-88-39.477-88-88 0-1.489.034-2.809.103-4.032.003-.05.002-.099.005-.149.001-.028.005-.056.006-.084 2.222-46.955 40.827-83.735 87.886-83.735zm-245.137 302.502 119.873-161.543c13.781 32.472 39.833 58.524 72.306 72.305l-161.539 119.87c-3.799 2.817-8.305 4.307-13.032 4.307-5.861 0-11.366-2.276-15.5-6.411-7.616-7.616-8.52-19.883-2.108-28.528z"/></svg>