<svg id="Layer" enable-background="new 0 0 512 512" height="512" viewBox="0 0 512 512" width="512" xmlns="http://www.w3.org/2000/svg"><path d="m488 244.03v135.94c0 14.87-15.65 24.54-28.94 17.89l-83.06-45.86v-80l83.06-45.86c13.29-6.65 28.94 3.02 28.94 17.89z" fill="#eae1e1"/><path d="m376 384v50c0 16.57-13.43 30-30 30h-292c-16.57 0-30-13.43-30-30v-50z" fill="#dccfcf"/><path d="m376 352v32h-352v-154c0-15.8 12.2-28.74 27.71-29.91 0 0 0 .01.01 0 15.74 14.83 36.95 23.91 60.28 23.91 48.6 0 88-39.4 88-88 0 48.6 39.4 88 88 88 23.33 0 44.54-9.08 60.28-23.91.01.01.01 0 .01 0 15.51 1.17 27.71 14.11 27.71 29.91v42z" fill="#f0eaea"/><path d="m288 48c48.6 0 88 39.4 88 88 0 25.27-10.65 48.04-27.71 64.09 0 0 0 .01-.01 0-15.74 14.83-36.95 23.91-60.28 23.91-48.6 0-88-39.4-88-88s39.4-88 88-88z" fill="#fed5b9"/><path d="m112 48c48.6 0 88 39.4 88 88s-39.4 88-88 88c-23.33 0-44.54-9.08-60.28-23.91-.01.01-.01 0-.01 0-17.06-16.05-27.71-38.82-27.71-64.09 0-48.6 39.4-88 88-88z" fill="#fed5b9"/><path d="m112 160h.01c13.255 0 23.99-10.745 23.99-24s-10.755-24-24.01-24-23.995 10.745-23.995 24 10.75 24 24.005 24z"/><path d="m288 160c13.255 0 24-10.745 24-24s-10.745-24-24-24h-.01c-13.255 0-23.995 10.745-23.995 24s10.75 24 24.005 24z"/><path d="m491.125 206.596c-13.066-8.073-29.071-8.792-42.805-1.919-.29.146-.577.296-.861.453l-47.459 26.203v-1.333c0-14.478-5.837-27.769-15.319-37.547 9.91-17.003 15.319-36.512 15.319-56.453 0-61.757-50.243-112-112-112-35.657 0-67.474 16.75-88 42.794-20.526-26.044-52.343-42.794-88-42.794-61.757 0-112 50.243-112 112 0 19.941 5.409 39.45 15.319 56.453-9.482 9.778-15.319 23.069-15.319 37.547v204c0 29.776 24.225 54 54 54h292c29.775 0 54-24.224 54-54v-41.333l47.459 26.204c.284.157.571.308.861.453 6.263 3.133 12.995 4.689 19.707 4.689 8.009 0 15.988-2.216 23.098-6.608 13.071-8.077 20.875-22.071 20.875-37.435v-135.94c0-15.364-7.804-29.358-20.875-37.434zm-443.125 23.404c0-.651.111-1.279.306-1.87 18.601 12.902 40.697 19.87 63.694 19.87 35.657 0 67.474-16.75 88-42.794 20.526 26.044 52.343 42.794 88 42.794 22.997 0 45.093-6.968 63.694-19.87.195.591.306 1.219.306 1.87v42 80 8h-304zm240-158c35.29 0 64 28.71 64 64 0 17.667-7.028 34.082-19.804 46.277-.126.113-.25.229-.374.345-11.894 11.206-27.457 17.378-43.822 17.378-35.29 0-64-28.71-64-64s28.71-64 64-64zm-176 0c35.29 0 64 28.71 64 64s-28.71 64-64 64c-16.365 0-31.928-6.172-43.822-17.378-.124-.116-.248-.231-.374-.345-12.776-12.195-19.804-28.61-19.804-46.277 0-35.29 28.71-64 64-64zm234 368h-292c-3.309 0-6-2.691-6-6v-26h304v26c0 3.309-2.691 6-6 6zm118-66.828-64-35.336v-51.672l64-35.336z"/></svg>