<svg id="Layer" enable-background="new 0 0 512 512" height="512" viewBox="0 0 512 512" width="512" xmlns="http://www.w3.org/2000/svg"><path d="m488 70v276c0 16.57-13.43 30-30 30h-404c-16.57 0-30-13.43-30-30v-276c0-16.57 13.43-30 30-30h404c16.57 0 30 13.43 30 30zm-174.09 152.37c8.12-7.86 8.12-20.88 0-28.74l-71.24-60.53c-13.63-11.68-34.67-2-34.67 15.94v117.92c0 17.94 21.04 27.62 34.67 15.94z" fill="#92f8fd"/><path d="m313.91 193.63c8.12 7.86 8.12 20.88 0 28.74l-71.24 60.53c-13.63 11.68-34.67 2-34.67-15.94v-117.92c0-17.94 21.04-27.62 34.67-15.94z" fill="#ffb4be"/><path d="m458 16h-404c-29.776 0-54 24.224-54 54v276c0 29.776 24.224 54 54 54h404c29.776 0 54-24.224 54-54v-276c0-29.776-24.224-54-54-54zm6 330c0 3.309-2.691 6-6 6h-404c-3.309 0-6-2.691-6-6v-276c0-3.309 2.691-6 6-6h404c3.309 0 6 2.691 6 6z"/><path d="m120 448h-96c-13.255 0-24 10.745-24 24s10.745 24 24 24h96c13.255 0 24-10.745 24-24s-10.745-24-24-24z"/><path d="m488 448h-272c-13.255 0-24 10.745-24 24s10.745 24 24 24h272c13.255 0 24-10.745 24-24s-10.745-24-24-24z"/><path d="m329.45 175.34-71.205-60.499c-13.504-11.545-31.912-14.106-48.054-6.682-16.155 7.432-26.191 23.097-26.191 40.881v117.92c0 17.784 10.036 33.449 26.192 40.88 6.118 2.814 12.56 4.194 18.938 4.194 10.451 0 20.729-3.706 29.116-10.875l71.204-60.499c.396-.336.78-.685 1.153-1.046 8.639-8.364 13.397-19.591 13.397-31.614s-4.758-23.25-13.397-31.614c-.373-.361-.757-.71-1.153-1.046zm-97.45 85.133v-104.946l61.757 52.473z"/></svg>